<svg width="15" height="17" viewBox="0 0 15 17" fill="none" xmlns="http://www.w3.org/2000/svg">
<path d="M4.54688 0.375C4.83398 0.375 5.06982 0.467285 5.25439 0.651855C5.43896 0.836426 5.53125 1.07227 5.53125 1.35938V2.34375H9.46875V1.35938C9.46875 1.07227 9.56104 0.836426 9.74561 0.651855C9.93018 0.467285 10.166 0.375 10.4531 0.375C10.7402 0.375 10.9761 0.467285 11.1606 0.651855C11.3452 0.836426 11.4375 1.07227 11.4375 1.35938V2.34375H12.9141C13.3242 2.36426 13.6729 2.50781 13.96 2.77441C14.2266 3.06152 14.3701 3.41016 14.3906 3.82031V5.29688H0.609375V3.82031C0.629883 3.41016 0.773437 3.06152 1.04004 2.77441C1.32715 2.50781 1.67578 2.36426 2.08594 2.34375H3.5625V1.35938C3.5625 1.07227 3.65479 0.836426 3.83936 0.651855C4.02393 0.467285 4.25977 0.375 4.54688 0.375ZM0.609375 6.28125H14.3906V14.6484C14.3701 15.0586 14.2266 15.4072 13.96 15.6943C13.6729 15.9609 13.3242 16.1045 12.9141 16.125H2.08594C1.67578 16.1045 1.32715 15.9609 1.04004 15.6943C0.773437 15.4072 0.629883 15.0586 0.609375 14.6484V6.28125ZM2.57812 8.74219V9.72656C2.59863 10.0342 2.7627 10.1982 3.07031 10.2188H4.05469C4.3623 10.1982 4.52637 10.0342 4.54688 9.72656V8.74219C4.52637 8.43457 4.3623 8.27051 4.05469 8.25H3.07031C2.7627 8.27051 2.59863 8.43457 2.57812 8.74219ZM6.51562 8.74219V9.72656C6.53613 10.0342 6.7002 10.1982 7.00781 10.2188H7.99219C8.2998 10.1982 8.46387 10.0342 8.48438 9.72656V8.74219C8.46387 8.43457 8.2998 8.27051 7.99219 8.25H7.00781C6.7002 8.27051 6.53613 8.43457 6.51562 8.74219ZM10.9453 8.25C10.6377 8.27051 10.4736 8.43457 10.4531 8.74219V9.72656C10.4736 10.0342 10.6377 10.1982 10.9453 10.2188H11.9297C12.2373 10.1982 12.4014 10.0342 12.4219 9.72656V8.74219C12.4014 8.43457 12.2373 8.27051 11.9297 8.25H10.9453ZM2.57812 12.6797V13.6641C2.59863 13.9717 2.7627 14.1357 3.07031 14.1562H4.05469C4.3623 14.1357 4.52637 13.9717 4.54688 13.6641V12.6797C4.52637 12.3721 4.3623 12.208 4.05469 12.1875H3.07031C2.7627 12.208 2.59863 12.3721 2.57812 12.6797ZM7.00781 12.1875C6.7002 12.208 6.53613 12.3721 6.51562 12.6797V13.6641C6.53613 13.9717 6.7002 14.1357 7.00781 14.1562H7.99219C8.2998 14.1357 8.46387 13.9717 8.48438 13.6641V12.6797C8.46387 12.3721 8.2998 12.208 7.99219 12.1875H7.00781ZM10.4531 12.6797V13.6641C10.4736 13.9717 10.6377 14.1357 10.9453 14.1562H11.9297C12.2373 14.1357 12.4014 13.9717 12.4219 13.6641V12.6797C12.4014 12.3721 12.2373 12.208 11.9297 12.1875H10.9453C10.6377 12.208 10.4736 12.3721 10.4531 12.6797Z" fill="currentColor"/>
</svg>
