<svg width="21" height="17" viewBox="0 0 21 17" fill="none" xmlns="http://www.w3.org/2000/svg">
<path d="M7.05469 11.2031C8.85938 11.1621 10.3667 10.6289 11.5767 9.60352C12.7866 8.59863 13.4121 7.32715 13.4531 5.78906C13.4121 4.25098 12.7866 2.97949 11.5767 1.97461C10.3667 0.949219 8.85938 0.416016 7.05469 0.375C5.25 0.416016 3.74268 0.949219 2.53271 1.97461C1.32275 2.97949 0.697266 4.25098 0.65625 5.78906C0.676758 6.99902 1.08691 8.05518 1.88672 8.95752C1.76367 9.26514 1.60986 9.52148 1.42529 9.72656C1.28174 9.91113 1.14844 10.0547 1.02539 10.1572C0.963867 10.2188 0.922852 10.2598 0.902344 10.2803C0.881836 10.3008 0.871582 10.311 0.871582 10.311H0.84082C0.676758 10.4546 0.625488 10.6392 0.687012 10.8647C0.769043 11.0698 0.922852 11.1826 1.14844 11.2031C1.8457 11.1826 2.48145 11.0596 3.05566 10.834C3.34277 10.7109 3.59912 10.5879 3.82471 10.4648C4.78857 10.9365 5.86523 11.1826 7.05469 11.2031ZM14.4375 5.78906C14.376 7.55273 13.7197 9.00879 12.4688 10.1572C11.1973 11.3057 9.63867 11.9722 7.79297 12.1567C8.18262 13.3257 8.93115 14.269 10.0386 14.9868C11.146 15.7251 12.4482 16.1045 13.9453 16.125C15.1348 16.1045 16.2114 15.8584 17.1753 15.3867C17.4009 15.5098 17.6572 15.6328 17.9443 15.7559C18.5186 15.9814 19.1543 16.1045 19.8516 16.125C20.0771 16.1045 20.231 15.9917 20.313 15.7866C20.3745 15.561 20.313 15.3765 20.1284 15.2329C20.1284 15.2329 20.1284 15.2227 20.1284 15.2021C20.1079 15.2021 20.0977 15.2021 20.0977 15.2021C20.0771 15.1816 20.0361 15.1406 19.9746 15.0791C19.8516 14.9766 19.7183 14.833 19.5747 14.6484C19.3901 14.4229 19.2363 14.1665 19.1133 13.8794C19.9131 12.9771 20.3232 11.9209 20.3438 10.7109C20.3027 9.25488 19.7285 8.02441 18.6211 7.01953C17.5137 6.01465 16.1089 5.44043 14.4067 5.29688C14.4272 5.46094 14.4375 5.625 14.4375 5.78906Z" fill="#6B7280"/>
</svg>
