<svg width="12" height="9" viewBox="0 0 12 9" fill="none" xmlns="http://www.w3.org/2000/svg">
<path d="M6.27632 5.64289C6.57681 5.64289 6.86499 5.52248 7.07747 5.30816C7.28995 5.09383 7.40932 4.80314 7.40932 4.50003C7.40932 4.19693 7.28995 3.90624 7.07747 3.69191C6.86499 3.47759 6.57681 3.35718 6.27632 3.35718C5.97582 3.35718 5.68764 3.47759 5.47516 3.69191C5.26268 3.90624 5.14331 4.19693 5.14331 4.50003C5.14331 4.80314 5.26268 5.09383 5.47516 5.30816C5.68764 5.52248 5.97582 5.64289 6.27632 5.64289Z" fill="currentColor"/>
<path fill-rule="evenodd" clip-rule="evenodd" d="M0.870728 4.5C1.59245 2.18171 3.7395 0.5 6.27629 0.5C8.81309 0.5 10.9601 2.18171 11.6819 4.5C10.9601 6.81829 8.81309 8.5 6.27629 8.5C3.7395 8.5 1.59245 6.81829 0.870728 4.5ZM8.5423 4.5C8.5423 5.10621 8.30357 5.68759 7.87861 6.11624C7.45365 6.5449 6.87728 6.78571 6.27629 6.78571C5.67531 6.78571 5.09894 6.5449 4.67398 6.11624C4.24902 5.68759 4.01028 5.10621 4.01028 4.5C4.01028 3.89379 4.24902 3.31241 4.67398 2.88376C5.09894 2.4551 5.67531 2.21429 6.27629 2.21429C6.87728 2.21429 7.45365 2.4551 7.87861 2.88376C8.30357 3.31241 8.5423 3.89379 8.5423 4.5Z" fill="currentColor"/>
</svg>
