<svg width="19" height="17" viewBox="0 0 19 17" fill="none" xmlns="http://www.w3.org/2000/svg">
<path d="M18.3594 8.58838C18.3389 8.85498 18.2363 9.08057 18.0518 9.26514C17.8672 9.44971 17.6416 9.55225 17.375 9.57275H16.3906L16.4214 14.4946C16.4009 14.5767 16.3906 14.6587 16.3906 14.7407V15.2329C16.3906 15.5815 16.2676 15.8687 16.0215 16.0942C15.7959 16.3403 15.5088 16.4634 15.1602 16.4634H14.668C14.627 16.4634 14.5962 16.4634 14.5757 16.4634C14.5347 16.4634 14.4937 16.4634 14.4526 16.4634H13.4375H12.6992C12.3506 16.4634 12.0635 16.3403 11.8379 16.0942C11.5918 15.8687 11.4687 15.5815 11.4687 15.2329V14.4946V12.5259C11.4687 12.2388 11.3765 12.0029 11.1919 11.8184C11.0073 11.6338 10.7715 11.5415 10.4844 11.5415H8.51562C8.22852 11.5415 7.99268 11.6338 7.80811 11.8184C7.62353 12.0029 7.53125 12.2388 7.53125 12.5259V14.4946V15.2329C7.53125 15.5815 7.4082 15.8687 7.16211 16.0942C6.93652 16.3403 6.64941 16.4634 6.30078 16.4634H5.5625H4.57812C4.55762 16.4634 4.53711 16.4634 4.5166 16.4634C4.49609 16.4634 4.47559 16.4634 4.45508 16.4634C4.41406 16.4634 4.37305 16.4634 4.33203 16.4634H3.83984C3.49121 16.4634 3.2041 16.3403 2.97852 16.0942C2.73242 15.8687 2.60937 15.5815 2.60937 15.2329V11.7876C2.60937 11.7671 2.60937 11.7363 2.60937 11.6953V9.57275H1.625C1.33789 9.55225 1.10205 9.44971 0.91748 9.26514C0.73291 9.08057 0.640625 8.84473 0.640625 8.55762C0.640625 8.29102 0.743164 8.04492 0.948242 7.81934L8.82324 0.959473C9.04883 0.774902 9.27441 0.692871 9.5 0.713379C9.74609 0.713379 9.96143 0.785156 10.146 0.928711L18.021 7.8501C18.2671 8.05518 18.3799 8.30127 18.3594 8.58838Z" fill="currentColor"/>
</svg>
