<svg width="40" height="40" viewBox="0 0 40 40" fill="none" xmlns="http://www.w3.org/2000/svg">
<path d="M30.423 35.9544H0V39.642H30.423V35.9544Z" fill="currentColor"/>
<path d="M30.423 26.6739C30.423 27.234 29.9365 27.688 29.3365 27.688H27.5256V34.1107H23.5416V27.688H20.6442V34.1107H16.6602V27.688H13.7628V34.1107H9.77882V27.688H6.88139V34.1107H2.89743V27.688H1.08654C0.486459 27.688 0 27.234 0 26.6739V23.9697H30.423V26.6739Z" fill="currentColor"/>
<path d="M24.8916 23.0478H14.7506H4.60959C4.60959 16.9379 9.14987 11.9849 14.7506 11.9849C20.3513 11.9849 24.8916 16.9379 24.8916 23.0478Z" fill="currentColor"/>
<path d="M24.8916 23.0478H14.7506H4.60959C4.60959 16.9379 9.14987 11.9849 14.7506 11.9849C20.3513 11.9849 24.8916 16.9379 24.8916 23.0478Z" fill="currentColor"/>
<path d="M16.5944 12.9067H14.7506H12.9067C12.9067 11.8884 13.7322 11.0629 14.7506 11.0629C15.7689 11.0629 16.5944 11.8884 16.5944 12.9067Z" fill="currentColor"/>
<path d="M16.5944 12.9067H14.7506H12.9067C12.9067 11.8884 13.7322 11.0629 14.7506 11.0629C15.7689 11.0629 16.5944 11.8884 16.5944 12.9067Z" fill="currentColor"/>
<path d="M32.7277 11.9632C32.7278 10.0593 34.1793 8.88801 35.2419 8.39657L35.3327 8.35228C36.2618 7.88027 36.8763 6.90119 36.8763 5.79722C36.8763 4.25732 35.6689 2.95011 34.1106 2.95011C32.5523 2.95011 31.3449 4.25732 31.3449 5.79722H28.5791C28.5792 2.56297 31.0865 0 34.1106 0C37.1346 0 39.642 2.56297 39.642 5.79722C39.642 8.1101 38.3538 10.085 36.5211 11.0165L36.3422 11.1032C36.0504 11.2382 35.8097 11.4213 35.6592 11.6031C35.5159 11.7762 35.4935 11.8945 35.4934 11.9632V14.7505H32.7277V11.9632Z" fill="currentColor"/>
<path d="M32.2668 17.5162C32.2668 16.4979 33.0924 15.6724 34.1107 15.6724C35.129 15.6724 35.9545 16.4979 35.9545 17.5162C35.9545 18.5346 35.129 19.3601 34.1107 19.3601C33.0924 19.3601 32.2668 18.5346 32.2668 17.5162Z" fill="currentColor"/>
</svg>
