<svg width="17" height="17" viewBox="0 0 17 17" fill="none" xmlns="http://www.w3.org/2000/svg">
<path d="M13.4219 7.11182C13.4014 8.54736 12.9912 9.80859 12.1914 10.8955L16.0981 14.7715C16.2827 14.9766 16.375 15.2124 16.375 15.479C16.375 15.7456 16.2827 15.9814 16.0981 16.1865C15.8931 16.3711 15.6572 16.4634 15.3906 16.4634C15.124 16.4634 14.8882 16.3711 14.6831 16.1865L10.8071 12.2798C9.72021 13.0796 8.45898 13.4897 7.02344 13.5103C5.21875 13.4692 3.71143 12.8438 2.50146 11.6338C1.2915 10.4238 0.666016 8.9165 0.625 7.11182C0.666016 5.30713 1.2915 3.7998 2.50146 2.58984C3.71143 1.37988 5.21875 0.754395 7.02344 0.713379C8.82812 0.754395 10.3354 1.37988 11.5454 2.58984C12.7554 3.7998 13.3809 5.30713 13.4219 7.11182ZM7.02344 11.5415C7.82324 11.5415 8.56152 11.3467 9.23828 10.957C9.91504 10.5674 10.4585 10.0239 10.8687 9.32666C11.2583 8.62939 11.4531 7.89111 11.4531 7.11182C11.4531 6.33252 11.2583 5.59424 10.8687 4.89697C10.4585 4.19971 9.91504 3.65625 9.23828 3.2666C8.56152 2.87695 7.82324 2.68213 7.02344 2.68213C6.22363 2.68213 5.48535 2.87695 4.80859 3.2666C4.13184 3.65625 3.58838 4.19971 3.17822 4.89697C2.78857 5.59424 2.59375 6.33252 2.59375 7.11182C2.59375 7.89111 2.78857 8.62939 3.17822 9.32666C3.58838 10.0239 4.13184 10.5674 4.80859 10.957C5.48535 11.3467 6.22363 11.5415 7.02344 11.5415Z" fill="currentColor"/>
</svg>
