<svg width="266" height="197" viewBox="0 0 266 197" fill="none" xmlns="http://www.w3.org/2000/svg">
<path d="M177 99H93V110H177V99Z" fill="currentColor"/>
<path d="M177 74C177 75.6569 175.657 77 174 77H169V96H158V77H150V96H139V77H131V96H120V77H112V96H101V77H96C94.3431 77 93 75.6569 93 74V66H177V74Z" fill="currentColor"/>
<path d="M164 63H135H106C106 46.9837 118.984 34 135 34C151.016 34 164 46.9837 164 63Z" fill="currentColor"/>
<path d="M164 63H135H106C106 46.9837 118.984 34 135 34C151.016 34 164 46.9837 164 63Z" fill="currentColor"/>
<path d="M140 35H135H130C130 32.2386 132.239 30 135 30C137.761 30 140 32.2386 140 35Z" fill="currentColor"/>
<path d="M140 35H135H130C130 32.2386 132.239 30 135 30C137.761 30 140 32.2386 140 35Z" fill="currentColor"/>
<path d="M177 15.7209C177 9.24764 182.373 4 189 4C195.627 4 201 9.24764 201 15.7209C201 20.5032 198.068 24.6165 193.864 26.4392C191.33 27.5376 189 29.6804 189 32.4419V40" stroke="#5046E6" stroke-width="8"/>
<rect x="184" y="44" width="10" height="10" rx="5" fill="currentColor"/>
<path d="M76.0469 161.199H55.5859V157.648H76.0469V161.199ZM81.2676 172.256H52.0176V168.67H81.2676V172.256ZM68.8223 177.969H64.3223V171.184H68.8223V177.969ZM77.8047 160.145C77.8047 162.043 77.7461 163.754 77.6289 165.277C77.5234 166.789 77.248 168.494 76.8027 170.393L72.373 169.918C72.666 168.629 72.8828 167.422 73.0234 166.297C73.1641 165.16 73.252 164.17 73.2871 163.326C73.3223 162.482 73.3398 161.422 73.3398 160.145V157.648H77.8047V160.145ZM77.8398 188.234H73.3398V180.359H54.9355V176.826H77.8398V188.234ZM95.8574 180.887H91.3926V175.666H95.8574V180.887ZM109.99 188.234H105.543V156.207H109.99V188.234ZM85.1172 179.199C88.9258 179.176 92.3066 179.105 95.2598 178.988C98.2246 178.859 101.066 178.619 103.785 178.268L104.066 181.59C100.996 182.129 97.8262 182.48 94.5566 182.645C91.2988 182.797 87.7305 182.873 83.8516 182.873L83.2539 179.199H85.1172ZM103.328 163.326H83.8867V159.811H103.328V163.326ZM93.5898 164.592C95.1602 164.592 96.5547 164.844 97.7734 165.348C98.9922 165.852 99.9414 166.561 100.621 167.475C101.301 168.377 101.641 169.42 101.641 170.604C101.641 171.775 101.301 172.812 100.621 173.715C99.9414 174.617 98.9922 175.326 97.7734 175.842C96.5547 176.346 95.1602 176.598 93.5898 176.598C92.0547 176.598 90.6777 176.346 89.459 175.842C88.252 175.338 87.3086 174.635 86.6289 173.732C85.9609 172.818 85.627 171.775 85.627 170.604C85.627 169.42 85.9609 168.377 86.6289 167.475C87.3086 166.561 88.252 165.852 89.459 165.348C90.6777 164.844 92.0547 164.592 93.5898 164.592ZM93.5898 167.984C92.875 167.984 92.2363 168.09 91.6738 168.301C91.1113 168.5 90.6719 168.799 90.3555 169.197C90.0391 169.584 89.8809 170.053 89.8809 170.604C89.8809 171.143 90.0391 171.605 90.3555 171.992C90.6719 172.379 91.1113 172.678 91.6738 172.889C92.2363 173.088 92.875 173.188 93.5898 173.188C94.3398 173.188 95.002 173.088 95.5762 172.889C96.1504 172.689 96.5898 172.396 96.8945 172.01C97.1992 171.611 97.3516 171.143 97.3516 170.604C97.3516 170.053 97.1992 169.584 96.8945 169.197C96.5898 168.799 96.1504 168.5 95.5762 168.301C95.002 168.09 94.3398 167.984 93.5898 167.984ZM95.8926 161.814H91.3926V156.365H95.8926V161.814ZM139.328 188.27H134.881V176.668H139.328V188.27ZM151.756 179.059H122.576V175.385H151.756V179.059ZM138.818 162.746C138.818 164.562 138.297 166.238 137.254 167.773C136.223 169.297 134.717 170.58 132.736 171.623C130.756 172.666 128.4 173.357 125.67 173.697L124.035 170.199C126.332 169.918 128.295 169.385 129.924 168.6C131.564 167.814 132.801 166.906 133.633 165.875C134.465 164.844 134.881 163.801 134.881 162.746V161.938H138.818V162.746ZM139.381 162.746C139.381 163.777 139.791 164.809 140.611 165.84C141.443 166.871 142.674 167.785 144.303 168.582C145.943 169.379 147.9 169.918 150.174 170.199L148.557 173.697C145.85 173.369 143.5 172.672 141.508 171.605C139.527 170.539 138.016 169.238 136.973 167.703C135.941 166.156 135.426 164.504 135.426 162.746V161.938H139.381V162.746ZM149.066 163.449H125.213V159.916H149.066V163.449ZM139.328 161.129H134.881V156.277H139.328V161.129ZM164.834 161.551C164.834 163.59 164.5 165.512 163.832 167.316C163.164 169.121 162.15 170.697 160.791 172.045C159.443 173.381 157.785 174.371 155.816 175.016L153.496 171.482C155.184 170.92 156.602 170.123 157.75 169.092C158.91 168.061 159.771 166.895 160.334 165.594C160.896 164.281 161.178 162.934 161.178 161.551V159.389H164.834V161.551ZM165.748 161.498C165.748 162.811 166.012 164.076 166.539 165.295C167.078 166.514 167.898 167.615 169 168.6C170.102 169.572 171.473 170.334 173.113 170.885L170.898 174.365C168.965 173.744 167.336 172.795 166.012 171.518C164.699 170.229 163.721 168.723 163.076 167C162.432 165.277 162.109 163.443 162.109 161.498V159.389H165.748V161.498ZM177.455 167.598H171.215V163.924H177.455V167.598ZM172.129 161.604H154.762V158.018H172.129V161.604ZM180.637 188.234H176.172V180.307H158.664V176.703H180.637V188.234ZM180.637 175.297H176.172V156.207H180.637V175.297ZM211.68 188.234H207.127V156.207H211.68V188.234ZM202.1 159.582C202.1 163.016 201.637 166.133 200.711 168.934C199.797 171.723 198.244 174.289 196.053 176.633C193.861 178.965 190.926 181.004 187.246 182.75L184.891 179.164C187.973 177.711 190.445 176.076 192.309 174.26C194.172 172.443 195.525 170.404 196.369 168.143C197.213 165.881 197.635 163.291 197.635 160.373V159.582H202.1ZM199.691 163.115H186.596V159.582H199.691V163.115Z" fill="currentColor"/>
<path d="M69.4141 130.422H60.3203V128.844H69.4141V130.422ZM71.7344 135.336H58.7344V133.742H71.7344V135.336ZM66.2031 137.875H64.2031V134.859H66.2031V137.875ZM70.1953 129.953C70.1953 130.797 70.1693 131.557 70.1172 132.234C70.0703 132.906 69.9479 133.664 69.75 134.508L67.7812 134.297C67.9115 133.724 68.0078 133.188 68.0703 132.688C68.1328 132.182 68.1719 131.742 68.1875 131.367C68.2031 130.992 68.2109 130.521 68.2109 129.953V128.844H70.1953V129.953ZM70.2109 142.438H68.2109V138.938H60.0312V137.367H70.2109V142.438ZM78.2188 139.172H76.2344V136.852H78.2188V139.172ZM84.5 142.438H82.5234V128.203H84.5V142.438ZM73.4453 138.422C75.138 138.411 76.6406 138.38 77.9531 138.328C79.2708 138.271 80.5339 138.164 81.7422 138.008L81.8672 139.484C80.5026 139.724 79.0938 139.88 77.6406 139.953C76.1927 140.021 74.6068 140.055 72.8828 140.055L72.6172 138.422H73.4453ZM81.5391 131.367H72.8984V129.805H81.5391V131.367ZM77.2109 131.93C77.9089 131.93 78.5286 132.042 79.0703 132.266C79.612 132.49 80.0339 132.805 80.3359 133.211C80.638 133.612 80.7891 134.076 80.7891 134.602C80.7891 135.122 80.638 135.583 80.3359 135.984C80.0339 136.385 79.612 136.701 79.0703 136.93C78.5286 137.154 77.9089 137.266 77.2109 137.266C76.5286 137.266 75.9167 137.154 75.375 136.93C74.8385 136.706 74.4193 136.393 74.1172 135.992C73.8203 135.586 73.6719 135.122 73.6719 134.602C73.6719 134.076 73.8203 133.612 74.1172 133.211C74.4193 132.805 74.8385 132.49 75.375 132.266C75.9167 132.042 76.5286 131.93 77.2109 131.93ZM77.2109 133.438C76.8932 133.438 76.6094 133.484 76.3594 133.578C76.1094 133.667 75.9141 133.799 75.7734 133.977C75.6328 134.148 75.5625 134.357 75.5625 134.602C75.5625 134.841 75.6328 135.047 75.7734 135.219C75.9141 135.391 76.1094 135.523 76.3594 135.617C76.6094 135.706 76.8932 135.75 77.2109 135.75C77.5443 135.75 77.8385 135.706 78.0938 135.617C78.349 135.529 78.5443 135.398 78.6797 135.227C78.8151 135.049 78.8828 134.841 78.8828 134.602C78.8828 134.357 78.8151 134.148 78.6797 133.977C78.5443 133.799 78.349 133.667 78.0938 133.578C77.8385 133.484 77.5443 133.438 77.2109 133.438ZM78.2344 130.695H76.2344V128.273H78.2344V130.695ZM92.6953 130.758H95.4922V128.945H97.4688V135.594H90.6875V128.945H92.6953V130.758ZM95.4922 134V132.289H92.6953V134H95.4922ZM100.531 133.094H97.0078V131.461H100.531V133.094ZM102.07 136.008H100.086V128.203H102.07V136.008ZM94.5625 137.898H100.086V136.586H102.062V142.258H92.5859V136.586H94.5625V137.898ZM100.086 140.656V139.438H94.5625V140.656H100.086ZM115.195 138.578H113.203V128.227H115.195V138.578ZM117.117 133.953H114.617V132.312H117.117V133.953ZM115.703 142.195H105.969V140.586H115.703V142.195ZM107.961 141.305H105.969V137.492H107.961V141.305ZM107.906 129.133C108.63 129.133 109.289 129.286 109.883 129.594C110.477 129.901 110.943 130.331 111.281 130.883C111.625 131.43 111.797 132.049 111.797 132.742C111.797 133.43 111.625 134.049 111.281 134.602C110.943 135.148 110.477 135.578 109.883 135.891C109.289 136.203 108.63 136.359 107.906 136.359C107.193 136.359 106.536 136.203 105.938 135.891C105.344 135.578 104.872 135.146 104.523 134.594C104.18 134.042 104.008 133.424 104.008 132.742C104.008 132.049 104.18 131.43 104.523 130.883C104.872 130.331 105.341 129.901 105.93 129.594C106.523 129.286 107.182 129.133 107.906 129.133ZM107.906 130.867C107.552 130.862 107.227 130.935 106.93 131.086C106.633 131.237 106.398 131.456 106.227 131.742C106.055 132.029 105.969 132.362 105.969 132.742C105.969 133.122 106.055 133.453 106.227 133.734C106.398 134.016 106.633 134.234 106.93 134.391C107.227 134.542 107.552 134.617 107.906 134.617C108.281 134.617 108.615 134.542 108.906 134.391C109.203 134.24 109.435 134.023 109.602 133.742C109.768 133.456 109.852 133.122 109.852 132.742C109.852 132.357 109.768 132.023 109.602 131.742C109.435 131.456 109.203 131.237 108.906 131.086C108.615 130.935 108.281 130.862 107.906 130.867ZM133.461 142.477H131.461V128.203H133.461V142.477ZM131.922 135.281H128.891V133.688H131.922V135.281ZM126.344 132.68C126.344 133.695 126.195 134.677 125.898 135.625C125.602 136.573 125.159 137.414 124.57 138.148C123.982 138.878 123.271 139.424 122.438 139.789L121.375 138.25C122.115 137.917 122.74 137.453 123.25 136.859C123.76 136.26 124.143 135.599 124.398 134.875C124.654 134.146 124.781 133.414 124.781 132.68V131.867H126.344V132.68ZM126.773 132.68C126.773 133.383 126.901 134.083 127.156 134.781C127.417 135.474 127.807 136.109 128.328 136.688C128.854 137.26 129.487 137.711 130.227 138.039L129.156 139.555C128.307 139.195 127.583 138.664 126.984 137.961C126.391 137.253 125.945 136.44 125.648 135.523C125.357 134.607 125.211 133.659 125.211 132.68V131.867H126.773V132.68ZM129.664 132.125H121.844V130.539H129.664V132.125ZM126.789 131.367H124.797V128.531H126.789V131.367ZM147.195 142.477H145.203V128.203H147.195V142.477ZM137.312 137.5C138.646 137.505 139.849 137.474 140.922 137.406C141.995 137.333 143.083 137.208 144.188 137.031L144.367 138.641C143.273 138.833 142.182 138.966 141.094 139.039C140.01 139.107 138.75 139.141 137.312 139.141H136.039V137.5H137.312ZM142.781 134.883H138.094V138.125H136.039V133.32H140.75V131.016H136.023V129.406H142.781V134.883ZM162.094 136.07H149.094V134.586H162.094V136.07ZM160.547 140.133H152.57V141.383H150.578V138.875H158.57V138.164H150.57V136.773H160.547V140.133ZM160.953 142.305H150.578V140.945H160.953V142.305ZM160.523 131.812H152.695V133H150.711V130.547H158.523V129.828H150.688V128.469H160.523V131.812ZM160.766 133.922H150.711V132.578H160.766V133.922ZM177.914 138.852H175.922V128.234H177.914V138.852ZM179.836 134.219H177.336V132.586H179.836V134.219ZM175.07 131.289H166.625V129.719H175.07V131.289ZM170.859 131.789C171.536 131.789 172.141 131.906 172.672 132.141C173.203 132.37 173.617 132.693 173.914 133.109C174.211 133.526 174.359 134.005 174.359 134.547C174.359 135.083 174.211 135.557 173.914 135.969C173.617 136.375 173.203 136.693 172.672 136.922C172.141 137.151 171.536 137.266 170.859 137.266C170.172 137.266 169.56 137.151 169.023 136.922C168.487 136.693 168.07 136.375 167.773 135.969C167.477 135.557 167.328 135.083 167.328 134.547C167.328 134.005 167.477 133.526 167.773 133.109C168.07 132.693 168.487 132.37 169.023 132.141C169.56 131.906 170.172 131.789 170.859 131.789ZM170.859 133.32C170.542 133.32 170.26 133.367 170.016 133.461C169.776 133.555 169.591 133.695 169.461 133.883C169.331 134.07 169.266 134.292 169.266 134.547C169.266 134.802 169.331 135.021 169.461 135.203C169.591 135.38 169.776 135.516 170.016 135.609C170.26 135.703 170.542 135.75 170.859 135.75C171.177 135.75 171.456 135.703 171.695 135.609C171.94 135.516 172.13 135.38 172.266 135.203C172.401 135.021 172.469 134.802 172.469 134.547C172.469 134.292 172.401 134.07 172.266 133.883C172.13 133.695 171.94 133.555 171.695 133.461C171.456 133.367 171.177 133.32 170.859 133.32ZM171.852 130.492H169.859V128.211H171.852V130.492ZM178.422 142.195H168.688V140.586H178.422V142.195ZM170.68 141.273H168.688V138.031H170.68V141.273ZM192.016 133.648H182.133V132.07H192.016V133.648ZM184.133 132.711H182.133V128.594H184.133V132.711ZM193.461 136.484H180.469V134.914H193.461V136.484ZM188.109 138.992H186.117V136H188.109V138.992ZM192.109 142.195H182V140.586H192.109V142.195ZM183.977 141.445H182V137.906H183.977V141.445ZM202.406 135.07H200.031V133.477H202.406V135.07ZM206.617 142.438H204.703V128.203H206.617V142.438ZM203.656 141.781H201.773V128.422H203.656V141.781ZM197.508 129.227C198.138 129.227 198.69 129.435 199.164 129.852C199.638 130.263 200.003 130.857 200.258 131.633C200.518 132.409 200.648 133.323 200.648 134.375C200.648 135.422 200.518 136.336 200.258 137.117C200.003 137.893 199.638 138.492 199.164 138.914C198.69 139.331 198.138 139.542 197.508 139.547C196.883 139.542 196.336 139.331 195.867 138.914C195.398 138.492 195.036 137.893 194.781 137.117C194.531 136.336 194.406 135.422 194.406 134.375C194.406 133.318 194.531 132.404 194.781 131.633C195.036 130.857 195.398 130.263 195.867 129.852C196.341 129.435 196.888 129.227 197.508 129.227ZM197.508 131.117C197.237 131.112 197.008 131.232 196.82 131.477C196.633 131.721 196.49 132.086 196.391 132.57C196.297 133.055 196.25 133.656 196.25 134.375C196.25 135.089 196.297 135.69 196.391 136.18C196.49 136.669 196.633 137.034 196.82 137.273C197.013 137.513 197.242 137.633 197.508 137.633C197.784 137.633 198.018 137.513 198.211 137.273C198.404 137.034 198.552 136.669 198.656 136.18C198.76 135.69 198.812 135.089 198.812 134.375C198.812 133.656 198.76 133.055 198.656 132.57C198.552 132.086 198.404 131.721 198.211 131.477C198.018 131.232 197.784 131.112 197.508 131.117Z" fill="currentColor"/>
</svg>
