<svg width="15" height="17" viewBox="0 0 15 17" fill="none" xmlns="http://www.w3.org/2000/svg">
<path d="M7.5 8.58838C8.21777 8.58838 8.87402 8.41406 9.46875 8.06543C10.0635 7.7168 10.5454 7.23486 10.9146 6.61963C11.2632 6.00439 11.4375 5.34814 11.4375 4.65088C11.4375 3.95361 11.2632 3.29736 10.9146 2.68213C10.5454 2.06689 10.0635 1.58496 9.46875 1.23633C8.87402 0.887695 8.21777 0.713379 7.5 0.713379C6.78223 0.713379 6.12598 0.887695 5.53125 1.23633C4.93652 1.58496 4.45459 2.06689 4.08545 2.68213C3.73682 3.29736 3.5625 3.95361 3.5625 4.65088C3.5625 5.34814 3.73682 6.00439 4.08545 6.61963C4.45459 7.23486 4.93652 7.7168 5.53125 8.06543C6.12598 8.41406 6.78223 8.58838 7.5 8.58838ZM6.08496 10.0649C4.54688 10.106 3.25488 10.6392 2.20898 11.6646C1.18359 12.7104 0.650391 14.0024 0.609375 15.5405C0.609375 15.8071 0.70166 16.0225 0.88623 16.1865C1.05029 16.3711 1.26562 16.4634 1.53223 16.4634H13.4678C13.7344 16.4634 13.9497 16.3711 14.1138 16.1865C14.2983 16.0225 14.3906 15.8071 14.3906 15.5405C14.3496 14.0024 13.8164 12.7104 12.791 11.6646C11.7451 10.6392 10.4531 10.106 8.91504 10.0649H6.08496Z" fill="currentColor"/>
</svg>
